<mxfile host="app.diagrams.net" agent="Mozilla/5.0 (Windows NT 10.0; Win64; x64; rv:133.0) Gecko/20100101 Firefox/133.0" version="25.0.3">
  <diagram name="Page-1" id="ENYnITCj1CfjkNTGMCXb">
    <mxGraphModel dx="1195" dy="622" grid="1" gridSize="10" guides="1" tooltips="1" connect="1" arrows="1" fold="1" page="1" pageScale="1" pageWidth="850" pageHeight="1100" math="0" shadow="0">
      <root>
        <mxCell id="0" />
        <mxCell id="1" parent="0" />
        <mxCell id="gAsUpRHShEHR7wRFEPpm-1" value="START" style="rounded=0;whiteSpace=wrap;html=1;" vertex="1" parent="1">
          <mxGeometry x="100" y="90" width="120" height="40" as="geometry" />
        </mxCell>
        <mxCell id="gAsUpRHShEHR7wRFEPpm-2" value="" style="shape=flexArrow;endArrow=classic;html=1;rounded=0;" edge="1" parent="1">
          <mxGeometry width="50" height="50" relative="1" as="geometry">
            <mxPoint x="159.5" y="130" as="sourcePoint" />
            <mxPoint x="160" y="170" as="targetPoint" />
            <Array as="points">
              <mxPoint x="159.5" y="150" />
            </Array>
          </mxGeometry>
        </mxCell>
        <mxCell id="gAsUpRHShEHR7wRFEPpm-3" value="CHECK IF DATABASE EXISTS" style="rounded=0;whiteSpace=wrap;html=1;" vertex="1" parent="1">
          <mxGeometry x="100" y="170" width="260" height="40" as="geometry" />
        </mxCell>
        <mxCell id="gAsUpRHShEHR7wRFEPpm-4" value="" style="shape=flexArrow;endArrow=classic;html=1;rounded=0;" edge="1" parent="1">
          <mxGeometry width="50" height="50" relative="1" as="geometry">
            <mxPoint x="159.5" y="210" as="sourcePoint" />
            <mxPoint x="160" y="250" as="targetPoint" />
            <Array as="points">
              <mxPoint x="159.5" y="230" />
            </Array>
          </mxGeometry>
        </mxCell>
        <mxCell id="gAsUpRHShEHR7wRFEPpm-5" value="YES" style="rounded=0;whiteSpace=wrap;html=1;" vertex="1" parent="1">
          <mxGeometry x="100" y="250" width="100" height="30" as="geometry" />
        </mxCell>
        <mxCell id="gAsUpRHShEHR7wRFEPpm-6" value="NO" style="rounded=0;whiteSpace=wrap;html=1;" vertex="1" parent="1">
          <mxGeometry x="250" y="250" width="100" height="30" as="geometry" />
        </mxCell>
        <mxCell id="gAsUpRHShEHR7wRFEPpm-7" value="" style="shape=flexArrow;endArrow=classic;html=1;rounded=0;" edge="1" parent="1">
          <mxGeometry width="50" height="50" relative="1" as="geometry">
            <mxPoint x="299.5" y="210" as="sourcePoint" />
            <mxPoint x="300" y="250" as="targetPoint" />
            <Array as="points">
              <mxPoint x="299.5" y="230" />
            </Array>
          </mxGeometry>
        </mxCell>
        <mxCell id="gAsUpRHShEHR7wRFEPpm-9" value="" style="shape=flexArrow;endArrow=classic;html=1;rounded=0;" edge="1" parent="1">
          <mxGeometry width="50" height="50" relative="1" as="geometry">
            <mxPoint x="299.5" y="280" as="sourcePoint" />
            <mxPoint x="300" y="320" as="targetPoint" />
            <Array as="points">
              <mxPoint x="299.5" y="300" />
            </Array>
          </mxGeometry>
        </mxCell>
        <mxCell id="gAsUpRHShEHR7wRFEPpm-10" value="CREATE DATABASE STRUCTURE" style="rounded=0;whiteSpace=wrap;html=1;" vertex="1" parent="1">
          <mxGeometry x="220" y="320" width="190" height="40" as="geometry" />
        </mxCell>
        <mxCell id="gAsUpRHShEHR7wRFEPpm-11" value="" style="shape=flexArrow;endArrow=classic;html=1;rounded=0;" edge="1" parent="1">
          <mxGeometry width="50" height="50" relative="1" as="geometry">
            <mxPoint x="299.5" y="360" as="sourcePoint" />
            <mxPoint x="300" y="400" as="targetPoint" />
            <Array as="points">
              <mxPoint x="299.5" y="380" />
            </Array>
          </mxGeometry>
        </mxCell>
        <mxCell id="gAsUpRHShEHR7wRFEPpm-12" value="ADD DATABASE TO MEMORY" style="rounded=0;whiteSpace=wrap;html=1;" vertex="1" parent="1">
          <mxGeometry x="220" y="400" width="190" height="40" as="geometry" />
        </mxCell>
        <mxCell id="gAsUpRHShEHR7wRFEPpm-13" value="END" style="rounded=0;whiteSpace=wrap;html=1;" vertex="1" parent="1">
          <mxGeometry x="250" y="480" width="100" height="30" as="geometry" />
        </mxCell>
        <mxCell id="gAsUpRHShEHR7wRFEPpm-14" value="" style="shape=flexArrow;endArrow=classic;html=1;rounded=0;" edge="1" parent="1">
          <mxGeometry width="50" height="50" relative="1" as="geometry">
            <mxPoint x="299.5" y="440" as="sourcePoint" />
            <mxPoint x="300" y="480" as="targetPoint" />
            <Array as="points">
              <mxPoint x="299.5" y="460" />
            </Array>
          </mxGeometry>
        </mxCell>
        <mxCell id="gAsUpRHShEHR7wRFEPpm-16" value="END" style="rounded=0;whiteSpace=wrap;html=1;" vertex="1" parent="1">
          <mxGeometry x="100" y="320" width="100" height="30" as="geometry" />
        </mxCell>
        <mxCell id="gAsUpRHShEHR7wRFEPpm-17" value="" style="shape=flexArrow;endArrow=classic;html=1;rounded=0;" edge="1" parent="1">
          <mxGeometry width="50" height="50" relative="1" as="geometry">
            <mxPoint x="159.71" y="280" as="sourcePoint" />
            <mxPoint x="160.21" y="320" as="targetPoint" />
            <Array as="points">
              <mxPoint x="159.71" y="300" />
            </Array>
          </mxGeometry>
        </mxCell>
      </root>
    </mxGraphModel>
  </diagram>
</mxfile>
